<svg width="149" height="25" viewBox="0 0 149 25" fill="none" xmlns="http://www.w3.org/2000/svg">
<path d="M35.0552 19.16C34.2019 19.16 33.4072 19.0213 32.6712 18.744C31.9459 18.456 31.3112 18.056 30.7672 17.544C30.2339 17.0213 29.8179 16.408 29.5192 15.704C29.2205 15 29.0712 14.232 29.0712 13.4C29.0712 12.568 29.2205 11.8 29.5192 11.096C29.8179 10.392 30.2392 9.784 30.7832 9.272C31.3272 8.74933 31.9619 8.34933 32.6872 8.072C33.4125 7.784 34.2072 7.64 35.0712 7.64C35.9885 7.64 36.8259 7.8 37.5832 8.12C38.3405 8.42933 38.9805 8.89333 39.5032 9.512L38.1592 10.776C37.7539 10.3387 37.3005 10.0133 36.7992 9.8C36.2979 9.576 35.7539 9.464 35.1672 9.464C34.5805 9.464 34.0419 9.56 33.5512 9.752C33.0712 9.944 32.6499 10.216 32.2872 10.568C31.9352 10.92 31.6579 11.336 31.4552 11.816C31.2632 12.296 31.1672 12.824 31.1672 13.4C31.1672 13.976 31.2632 14.504 31.4552 14.984C31.6579 15.464 31.9352 15.88 32.2872 16.232C32.6499 16.584 33.0712 16.856 33.5512 17.048C34.0419 17.24 34.5805 17.336 35.1672 17.336C35.7539 17.336 36.2979 17.2293 36.7992 17.016C37.3005 16.792 37.7539 16.456 38.1592 16.008L39.5032 17.288C38.9805 17.896 38.3405 18.36 37.5832 18.68C36.8259 19 35.9832 19.16 35.0552 19.16ZM44.8161 19.112C43.9414 19.112 43.1627 18.9253 42.4801 18.552C41.7974 18.168 41.2587 17.6453 40.8641 16.984C40.4694 16.3227 40.2721 15.5707 40.2721 14.728C40.2721 13.8747 40.4694 13.1227 40.8641 12.472C41.2587 11.8107 41.7974 11.2933 42.4801 10.92C43.1627 10.5467 43.9414 10.36 44.8161 10.36C45.7014 10.36 46.4854 10.5467 47.1681 10.92C47.8614 11.2933 48.4001 11.8053 48.7841 12.456C49.1787 13.1067 49.3761 13.864 49.3761 14.728C49.3761 15.5707 49.1787 16.3227 48.7841 16.984C48.4001 17.6453 47.8614 18.168 47.1681 18.552C46.4854 18.9253 45.7014 19.112 44.8161 19.112ZM44.8161 17.4C45.3067 17.4 45.7441 17.2933 46.1281 17.08C46.5121 16.8667 46.8107 16.5573 47.0241 16.152C47.2481 15.7467 47.3601 15.272 47.3601 14.728C47.3601 14.1733 47.2481 13.6987 47.0241 13.304C46.8107 12.8987 46.5121 12.5893 46.1281 12.376C45.7441 12.1627 45.3121 12.056 44.8321 12.056C44.3414 12.056 43.9041 12.1627 43.5201 12.376C43.1467 12.5893 42.8481 12.8987 42.6241 13.304C42.4001 13.6987 42.2881 14.1733 42.2881 14.728C42.2881 15.272 42.4001 15.7467 42.6241 16.152C42.8481 16.5573 43.1467 16.8667 43.5201 17.08C43.9041 17.2933 44.3361 17.4 44.8161 17.4ZM51.2886 19V7.128H53.2886V19H51.2886ZM59.7536 19.112C58.8789 19.112 58.1002 18.9253 57.4176 18.552C56.7349 18.168 56.1962 17.6453 55.8016 16.984C55.4069 16.3227 55.2096 15.5707 55.2096 14.728C55.2096 13.8747 55.4069 13.1227 55.8016 12.472C56.1962 11.8107 56.7349 11.2933 57.4176 10.92C58.1002 10.5467 58.8789 10.36 59.7536 10.36C60.6389 10.36 61.4229 10.5467 62.1056 10.92C62.7989 11.2933 63.3376 11.8053 63.7216 12.456C64.1162 13.1067 64.3136 13.864 64.3136 14.728C64.3136 15.5707 64.1162 16.3227 63.7216 16.984C63.3376 17.6453 62.7989 18.168 62.1056 18.552C61.4229 18.9253 60.6389 19.112 59.7536 19.112ZM59.7536 17.4C60.2442 17.4 60.6816 17.2933 61.0656 17.08C61.4496 16.8667 61.7482 16.5573 61.9616 16.152C62.1856 15.7467 62.2976 15.272 62.2976 14.728C62.2976 14.1733 62.1856 13.6987 61.9616 13.304C61.7482 12.8987 61.4496 12.5893 61.0656 12.376C60.6816 12.1627 60.2496 12.056 59.7696 12.056C59.2789 12.056 58.8416 12.1627 58.4576 12.376C58.0842 12.5893 57.7856 12.8987 57.5616 13.304C57.3376 13.6987 57.2256 14.1733 57.2256 14.728C57.2256 15.272 57.3376 15.7467 57.5616 16.152C57.7856 16.5573 58.0842 16.8667 58.4576 17.08C58.8416 17.2933 59.2736 17.4 59.7536 17.4ZM66.2261 19V10.456H68.1301V12.808L67.9061 12.12C68.1621 11.544 68.5621 11.1067 69.1061 10.808C69.6607 10.5093 70.3487 10.36 71.1701 10.36V12.264C71.0847 12.2427 71.0047 12.232 70.9301 12.232C70.8554 12.2213 70.7807 12.216 70.7061 12.216C69.9487 12.216 69.3461 12.44 68.8981 12.888C68.4501 13.3253 68.2261 13.9813 68.2261 14.856V19H66.2261Z" fill="black"/>
<rect x="91" width="25" height="25" fill="#638AF3" fill-opacity="0.75"/>
<rect x="124" width="25" height="25" fill="#EB7A4A" fill-opacity="0.75"/>
</svg>
