<svg width="20" height="20" viewBox="0 0 20 20" fill="none" xmlns="http://www.w3.org/2000/svg">
<path d="M18.0891 5.57C17.9149 5.42683 17.7044 5.33475 17.481 5.30398C17.2576 5.27321 17.03 5.30496 16.8235 5.39571L12.989 7.10078L10.761 3.08438C10.6546 2.89686 10.5003 2.74092 10.3139 2.63244C10.1275 2.52395 9.91575 2.4668 9.70011 2.4668C9.48446 2.4668 9.27267 2.52395 9.08631 2.63244C8.89994 2.74092 8.74566 2.89686 8.63917 3.08438L6.4112 7.10078L2.57667 5.39571C2.37017 5.30335 2.14195 5.27061 1.91782 5.30117C1.69368 5.33173 1.48256 5.42439 1.30833 5.56866C1.1341 5.71294 1.0037 5.90307 0.931879 6.11758C0.860056 6.33208 0.849673 6.5624 0.901902 6.7825L2.82675 14.9896C2.86355 15.1485 2.93223 15.2983 3.02863 15.4298C3.12502 15.5614 3.24712 15.672 3.38753 15.755C3.57762 15.8688 3.79496 15.929 4.01651 15.9293C4.12421 15.9291 4.23135 15.9138 4.33479 15.8838C7.84333 14.9138 11.5493 14.9138 15.0578 15.8838C15.3782 15.9681 15.7189 15.9217 16.0051 15.755C16.1464 15.6731 16.2691 15.5628 16.3657 15.431C16.4622 15.2993 16.5303 15.149 16.5659 14.9896L18.4983 6.7825C18.55 6.56234 18.539 6.33213 18.4667 6.11787C18.3944 5.90361 18.2636 5.71384 18.0891 5.57ZM15.3837 14.7168C11.6621 13.6862 7.73048 13.6862 4.00893 14.7168L2.08409 6.50969L5.91862 8.20719C6.19377 8.33228 6.50604 8.34867 6.79278 8.2531C7.07951 8.15752 7.31949 7.95703 7.46456 7.69188L9.70011 3.67547L11.9357 7.69188C12.0807 7.95703 12.3207 8.15752 12.6074 8.2531C12.8942 8.34867 13.2064 8.33228 13.4816 8.20719L17.3161 6.50969L15.3837 14.7168Z" fill="#BB7000"/>
</svg>
