<svg width="139" height="25" viewBox="0 0 139 25" fill="none" xmlns="http://www.w3.org/2000/svg">
<rect x="114" width="25" height="25" fill="#638AF3" fill-opacity="0.75"/>
<path d="M3.81463 12.456H9.38263V14.168H3.81463V12.456ZM3.97463 17.256H10.2946V19H1.89463V7.8H10.0706V9.544H3.97463V17.256ZM11.1128 19L14.8728 14.104L14.8408 15.176L11.2568 10.456H13.4808L15.9928 13.816H15.1448L17.6728 10.456H19.8328L16.2168 15.176L16.2328 14.104L19.9768 19H17.7208L15.0807 15.432L15.9128 15.544L13.3207 19H11.1128ZM26.1886 19.112C25.4953 19.112 24.8606 18.952 24.2846 18.632C23.7193 18.312 23.266 17.832 22.9246 17.192C22.594 16.5413 22.4286 15.72 22.4286 14.728C22.4286 13.7253 22.5886 12.904 22.9086 12.264C23.2393 11.624 23.6873 11.1493 24.2526 10.84C24.818 10.52 25.4633 10.36 26.1886 10.36C27.0313 10.36 27.7726 10.5413 28.4126 10.904C29.0633 11.2667 29.5753 11.7733 29.9486 12.424C30.3326 13.0747 30.5246 13.8427 30.5246 14.728C30.5246 15.6133 30.3326 16.3867 29.9486 17.048C29.5753 17.6987 29.0633 18.2053 28.4126 18.568C27.7726 18.9307 27.0313 19.112 26.1886 19.112ZM21.4526 22.104V10.456H23.3566V12.472L23.2926 14.744L23.4526 17.016V22.104H21.4526ZM25.9646 17.4C26.4446 17.4 26.8713 17.2933 27.2446 17.08C27.6286 16.8667 27.9326 16.5573 28.1566 16.152C28.3806 15.7467 28.4926 15.272 28.4926 14.728C28.4926 14.1733 28.3806 13.6987 28.1566 13.304C27.9326 12.8987 27.6286 12.5893 27.2446 12.376C26.8713 12.1627 26.4446 12.056 25.9646 12.056C25.4846 12.056 25.0526 12.1627 24.6686 12.376C24.2846 12.5893 23.9806 12.8987 23.7566 13.304C23.5326 13.6987 23.4206 14.1733 23.4206 14.728C23.4206 15.272 23.5326 15.7467 23.7566 16.152C23.9806 16.5573 24.2846 16.8667 24.6686 17.08C25.0526 17.2933 25.4846 17.4 25.9646 17.4ZM36.4374 19.112C35.488 19.112 34.656 18.9253 33.9414 18.552C33.2374 18.168 32.688 17.6453 32.2934 16.984C31.9094 16.3227 31.7174 15.5707 31.7174 14.728C31.7174 13.8747 31.904 13.1227 32.2774 12.472C32.6614 11.8107 33.184 11.2933 33.8454 10.92C34.5174 10.5467 35.28 10.36 36.1334 10.36C36.9654 10.36 37.7067 10.5413 38.3574 10.904C39.008 11.2667 39.52 11.7787 39.8934 12.44C40.2667 13.1013 40.4534 13.88 40.4534 14.776C40.4534 14.8613 40.448 14.9573 40.4374 15.064C40.4374 15.1707 40.432 15.272 40.4214 15.368H33.3014V14.04H39.3654L38.5814 14.456C38.592 13.9653 38.4907 13.5333 38.2774 13.16C38.064 12.7867 37.7707 12.4933 37.3974 12.28C37.0347 12.0667 36.6134 11.96 36.1334 11.96C35.6427 11.96 35.2107 12.0667 34.8374 12.28C34.4747 12.4933 34.1867 12.792 33.9734 13.176C33.7707 13.5493 33.6694 13.992 33.6694 14.504V14.824C33.6694 15.336 33.7867 15.7893 34.0214 16.184C34.256 16.5787 34.5867 16.8827 35.0134 17.096C35.44 17.3093 35.9307 17.416 36.4854 17.416C36.9654 17.416 37.3974 17.3413 37.7814 17.192C38.1654 17.0427 38.5067 16.808 38.8054 16.488L39.8774 17.72C39.4934 18.168 39.008 18.5147 38.4214 18.76C37.8454 18.9947 37.184 19.112 36.4374 19.112ZM42.3745 19V10.456H44.2785V12.808L44.0545 12.12C44.3105 11.544 44.7105 11.1067 45.2545 10.808C45.8092 10.5093 46.4972 10.36 47.3185 10.36V12.264C47.2332 12.2427 47.1532 12.232 47.0785 12.232C47.0038 12.2213 46.9292 12.216 46.8545 12.216C46.0972 12.216 45.4945 12.44 45.0465 12.888C44.5985 13.3253 44.3745 13.9813 44.3745 14.856V19H42.3745ZM49.0151 19V10.456H51.0151V19H49.0151ZM50.0231 9.048C49.6498 9.048 49.3405 8.93067 49.0951 8.696C48.8605 8.46133 48.7431 8.17867 48.7431 7.848C48.7431 7.50667 48.8605 7.224 49.0951 7C49.3405 6.76533 49.6498 6.648 50.0231 6.648C50.3965 6.648 50.7005 6.76 50.9351 6.984C51.1805 7.19733 51.3031 7.46933 51.3031 7.8C51.3031 8.152 51.1858 8.45067 50.9511 8.696C50.7165 8.93067 50.4071 9.048 50.0231 9.048ZM57.6561 19.112C56.7068 19.112 55.8748 18.9253 55.1601 18.552C54.4561 18.168 53.9068 17.6453 53.5121 16.984C53.1281 16.3227 52.9361 15.5707 52.9361 14.728C52.9361 13.8747 53.1228 13.1227 53.4961 12.472C53.8801 11.8107 54.4028 11.2933 55.0641 10.92C55.7361 10.5467 56.4988 10.36 57.3521 10.36C58.1841 10.36 58.9255 10.5413 59.5761 10.904C60.2268 11.2667 60.7388 11.7787 61.1121 12.44C61.4855 13.1013 61.6721 13.88 61.6721 14.776C61.6721 14.8613 61.6668 14.9573 61.6561 15.064C61.6561 15.1707 61.6508 15.272 61.6401 15.368H54.5201V14.04H60.5841L59.8001 14.456C59.8108 13.9653 59.7095 13.5333 59.4961 13.16C59.2828 12.7867 58.9895 12.4933 58.6161 12.28C58.2535 12.0667 57.8321 11.96 57.3521 11.96C56.8615 11.96 56.4295 12.0667 56.0561 12.28C55.6935 12.4933 55.4055 12.792 55.1921 13.176C54.9895 13.5493 54.8881 13.992 54.8881 14.504V14.824C54.8881 15.336 55.0055 15.7893 55.2401 16.184C55.4748 16.5787 55.8055 16.8827 56.2321 17.096C56.6588 17.3093 57.1495 17.416 57.7041 17.416C58.1841 17.416 58.6161 17.3413 59.0001 17.192C59.3841 17.0427 59.7255 16.808 60.0241 16.488L61.0961 17.72C60.7121 18.168 60.2268 18.5147 59.6401 18.76C59.0641 18.9947 58.4028 19.112 57.6561 19.112ZM68.4413 10.36C69.1239 10.36 69.7319 10.4933 70.2653 10.76C70.8093 11.0267 71.2359 11.4373 71.5453 11.992C71.8546 12.536 72.0093 13.24 72.0093 14.104V19H70.0093V14.36C70.0093 13.6027 69.8279 13.0373 69.4653 12.664C69.1133 12.2907 68.6173 12.104 67.9773 12.104C67.5079 12.104 67.0919 12.2 66.7293 12.392C66.3666 12.584 66.0839 12.872 65.8813 13.256C65.6893 13.6293 65.5933 14.104 65.5933 14.68V19H63.5933V10.456H65.4973V12.76L65.1613 12.056C65.4599 11.512 65.8919 11.096 66.4573 10.808C67.0333 10.5093 67.6946 10.36 68.4413 10.36ZM78.482 19.112C77.586 19.112 76.786 18.9253 76.082 18.552C75.3887 18.168 74.8447 17.6453 74.45 16.984C74.0553 16.3227 73.858 15.5707 73.858 14.728C73.858 13.8747 74.0553 13.1227 74.45 12.472C74.8447 11.8107 75.3887 11.2933 76.082 10.92C76.786 10.5467 77.586 10.36 78.482 10.36C79.314 10.36 80.0447 10.5307 80.674 10.872C81.314 11.2027 81.7993 11.6933 82.13 12.344L80.594 13.24C80.338 12.8347 80.0233 12.536 79.65 12.344C79.2873 12.152 78.8927 12.056 78.466 12.056C77.9753 12.056 77.5327 12.1627 77.138 12.376C76.7433 12.5893 76.434 12.8987 76.21 13.304C75.986 13.6987 75.874 14.1733 75.874 14.728C75.874 15.2827 75.986 15.7627 76.21 16.168C76.434 16.5627 76.7433 16.8667 77.138 17.08C77.5327 17.2933 77.9753 17.4 78.466 17.4C78.8927 17.4 79.2873 17.304 79.65 17.112C80.0233 16.92 80.338 16.6213 80.594 16.216L82.13 17.112C81.7993 17.752 81.314 18.248 80.674 18.6C80.0447 18.9413 79.314 19.112 78.482 19.112ZM87.7499 19.112C86.8005 19.112 85.9685 18.9253 85.2539 18.552C84.5499 18.168 84.0005 17.6453 83.6059 16.984C83.2219 16.3227 83.0299 15.5707 83.0299 14.728C83.0299 13.8747 83.2165 13.1227 83.5899 12.472C83.9739 11.8107 84.4965 11.2933 85.1579 10.92C85.8299 10.5467 86.5925 10.36 87.4459 10.36C88.2779 10.36 89.0192 10.5413 89.6699 10.904C90.3205 11.2667 90.8325 11.7787 91.2059 12.44C91.5792 13.1013 91.7659 13.88 91.7659 14.776C91.7659 14.8613 91.7605 14.9573 91.7499 15.064C91.7499 15.1707 91.7445 15.272 91.7339 15.368H84.6139V14.04H90.6779L89.8939 14.456C89.9045 13.9653 89.8032 13.5333 89.5899 13.16C89.3765 12.7867 89.0832 12.4933 88.7099 12.28C88.3472 12.0667 87.9259 11.96 87.4459 11.96C86.9552 11.96 86.5232 12.0667 86.1499 12.28C85.7872 12.4933 85.4992 12.792 85.2859 13.176C85.0832 13.5493 84.9819 13.992 84.9819 14.504V14.824C84.9819 15.336 85.0992 15.7893 85.3339 16.184C85.5685 16.5787 85.8992 16.8827 86.3259 17.096C86.7525 17.3093 87.2432 17.416 87.7979 17.416C88.2779 17.416 88.7099 17.3413 89.0939 17.192C89.4779 17.0427 89.8192 16.808 90.1179 16.488L91.1899 17.72C90.8059 18.168 90.3205 18.5147 89.7339 18.76C89.1579 18.9947 88.4965 19.112 87.7499 19.112ZM96.327 19.112C95.6123 19.112 94.9243 19.0213 94.263 18.84C93.6123 18.648 93.095 18.4187 92.711 18.152L93.479 16.632C93.863 16.8773 94.3217 17.08 94.855 17.24C95.3883 17.4 95.9217 17.48 96.455 17.48C97.0843 17.48 97.5377 17.3947 97.815 17.224C98.103 17.0533 98.247 16.824 98.247 16.536C98.247 16.3013 98.151 16.1253 97.959 16.008C97.767 15.88 97.5163 15.784 97.207 15.72C96.8977 15.656 96.551 15.5973 96.167 15.544C95.7937 15.4907 95.415 15.4213 95.031 15.336C94.6577 15.24 94.3163 15.1067 94.007 14.936C93.6977 14.7547 93.447 14.5147 93.255 14.216C93.063 13.9173 92.967 13.5227 92.967 13.032C92.967 12.488 93.1217 12.0187 93.431 11.624C93.7403 11.2187 94.1723 10.9093 94.727 10.696C95.2923 10.472 95.959 10.36 96.727 10.36C97.303 10.36 97.8843 10.424 98.471 10.552C99.0577 10.68 99.543 10.8613 99.927 11.096L99.159 12.616C98.7537 12.3707 98.343 12.2053 97.927 12.12C97.5217 12.024 97.1163 11.976 96.711 11.976C96.103 11.976 95.6497 12.0667 95.351 12.248C95.063 12.4293 94.919 12.6587 94.919 12.936C94.919 13.192 95.015 13.384 95.207 13.512C95.399 13.64 95.6497 13.7413 95.959 13.816C96.2683 13.8907 96.6097 13.9547 96.983 14.008C97.367 14.0507 97.7457 14.12 98.119 14.216C98.4923 14.312 98.8337 14.4453 99.143 14.616C99.463 14.776 99.719 15.0053 99.911 15.304C100.103 15.6027 100.199 15.992 100.199 16.472C100.199 17.0053 100.039 17.4693 99.719 17.864C99.4097 18.2587 98.967 18.568 98.391 18.792C97.815 19.0053 97.127 19.112 96.327 19.112Z" fill="black"/>
</svg>
