<svg width="40" height="40" viewBox="0 0 40 40" fill="none" xmlns="http://www.w3.org/2000/svg">
<circle cx="20" cy="20" r="19" fill="white" stroke="black" stroke-width="2"/>
<path d="M17.944 24.6401C17.944 23.9001 18.064 23.2501 18.304 22.6901C18.544 22.1301 18.854 21.6301 19.234 21.1901C19.614 20.7501 20.014 20.3401 20.434 19.9601C20.874 19.5801 21.284 19.2101 21.664 18.8501C22.044 18.4901 22.354 18.1101 22.594 17.7101C22.834 17.3101 22.954 16.8601 22.954 16.3601C22.954 15.5201 22.614 14.8401 21.934 14.3201C21.254 13.8001 20.344 13.5401 19.204 13.5401C18.104 13.5401 17.144 13.7401 16.324 14.1401C15.524 14.5401 14.854 15.1101 14.314 15.8501L11.404 13.9601C12.244 12.8201 13.344 11.9301 14.704 11.2901C16.064 10.6301 17.674 10.3001 19.534 10.3001C20.994 10.3001 22.274 10.5201 23.374 10.9601C24.474 11.3801 25.334 12.0001 25.954 12.8201C26.574 13.6201 26.884 14.6001 26.884 15.7601C26.884 16.5601 26.754 17.2601 26.494 17.8601C26.254 18.4601 25.934 18.9901 25.534 19.4501C25.154 19.8901 24.744 20.3101 24.304 20.7101C23.864 21.0901 23.444 21.4701 23.044 21.8501C22.664 22.2301 22.354 22.6401 22.114 23.0801C21.874 23.5201 21.754 24.0401 21.754 24.6401H17.944ZM19.864 31.8101C19.164 31.8101 18.584 31.5801 18.124 31.1201C17.684 30.6601 17.464 30.1101 17.464 29.4701C17.464 28.8301 17.684 28.2901 18.124 27.8501C18.584 27.3901 19.164 27.1601 19.864 27.1601C20.564 27.1601 21.134 27.3901 21.574 27.8501C22.014 28.2901 22.234 28.8301 22.234 29.4701C22.234 30.1101 22.014 30.6601 21.574 31.1201C21.134 31.5801 20.564 31.8101 19.864 31.8101Z" fill="black"/>
</svg>
