<svg width="139" height="25" viewBox="0 0 139 25" fill="none" xmlns="http://www.w3.org/2000/svg">
<path d="M15.8634 19V7.8H17.9434V19H15.8634ZM25.6288 10.36C26.3114 10.36 26.9194 10.4933 27.4528 10.76C27.9968 11.0267 28.4234 11.4373 28.7328 11.992C29.0421 12.536 29.1968 13.24 29.1968 14.104V19H27.1968V14.36C27.1968 13.6027 27.0154 13.0373 26.6528 12.664C26.3008 12.2907 25.8048 12.104 25.1648 12.104C24.6954 12.104 24.2794 12.2 23.9168 12.392C23.5541 12.584 23.2714 12.872 23.0688 13.256C22.8768 13.6293 22.7808 14.104 22.7808 14.68V19H20.7808V10.456H22.6848V12.76L22.3488 12.056C22.6474 11.512 23.0794 11.096 23.6448 10.808C24.2208 10.5093 24.8821 10.36 25.6288 10.36ZM34.9499 19.112C34.0112 19.112 33.2859 18.872 32.7739 18.392C32.2619 17.9013 32.0059 17.1813 32.0059 16.232V8.568H34.0059V16.184C34.0059 16.5893 34.1072 16.904 34.3099 17.128C34.5232 17.352 34.8165 17.464 35.1899 17.464C35.6379 17.464 36.0112 17.3467 36.3099 17.112L36.8699 18.536C36.6352 18.728 36.3472 18.872 36.0059 18.968C35.6645 19.064 35.3125 19.112 34.9499 19.112ZM30.5979 12.12V10.52H36.2939V12.12H30.5979ZM42.2499 19.112C41.3005 19.112 40.4685 18.9253 39.7539 18.552C39.0499 18.168 38.5005 17.6453 38.1059 16.984C37.7219 16.3227 37.5299 15.5707 37.5299 14.728C37.5299 13.8747 37.7165 13.1227 38.0899 12.472C38.4739 11.8107 38.9965 11.2933 39.6579 10.92C40.3299 10.5467 41.0925 10.36 41.9459 10.36C42.7779 10.36 43.5192 10.5413 44.1699 10.904C44.8205 11.2667 45.3325 11.7787 45.7059 12.44C46.0792 13.1013 46.2659 13.88 46.2659 14.776C46.2659 14.8613 46.2605 14.9573 46.2499 15.064C46.2499 15.1707 46.2445 15.272 46.2339 15.368H39.1139V14.04H45.1779L44.3939 14.456C44.4045 13.9653 44.3032 13.5333 44.0899 13.16C43.8765 12.7867 43.5832 12.4933 43.2099 12.28C42.8472 12.0667 42.4259 11.96 41.9459 11.96C41.4552 11.96 41.0232 12.0667 40.6499 12.28C40.2872 12.4933 39.9992 12.792 39.7859 13.176C39.5832 13.5493 39.4819 13.992 39.4819 14.504V14.824C39.4819 15.336 39.5992 15.7893 39.8339 16.184C40.0685 16.5787 40.3992 16.8827 40.8259 17.096C41.2525 17.3093 41.7432 17.416 42.2979 17.416C42.7779 17.416 43.2099 17.3413 43.5939 17.192C43.9779 17.0427 44.3192 16.808 44.6179 16.488L45.6899 17.72C45.3059 18.168 44.8205 18.5147 44.2339 18.76C43.6579 18.9947 42.9965 19.112 42.2499 19.112ZM48.187 19V10.456H50.091V12.808L49.867 12.12C50.123 11.544 50.523 11.1067 51.067 10.808C51.6217 10.5093 52.3097 10.36 53.131 10.36V12.264C53.0457 12.2427 52.9657 12.232 52.891 12.232C52.8163 12.2213 52.7417 12.216 52.667 12.216C51.9097 12.216 51.307 12.44 50.859 12.888C50.411 13.3253 50.187 13.9813 50.187 14.856V19H48.187ZM58.7655 19.112C57.8162 19.112 56.9842 18.9253 56.2695 18.552C55.5655 18.168 55.0162 17.6453 54.6215 16.984C54.2375 16.3227 54.0455 15.5707 54.0455 14.728C54.0455 13.8747 54.2322 13.1227 54.6055 12.472C54.9895 11.8107 55.5122 11.2933 56.1735 10.92C56.8455 10.5467 57.6082 10.36 58.4615 10.36C59.2935 10.36 60.0348 10.5413 60.6855 10.904C61.3362 11.2667 61.8482 11.7787 62.2215 12.44C62.5948 13.1013 62.7815 13.88 62.7815 14.776C62.7815 14.8613 62.7762 14.9573 62.7655 15.064C62.7655 15.1707 62.7602 15.272 62.7495 15.368H55.6295V14.04H61.6935L60.9095 14.456C60.9202 13.9653 60.8188 13.5333 60.6055 13.16C60.3922 12.7867 60.0988 12.4933 59.7255 12.28C59.3628 12.0667 58.9415 11.96 58.4615 11.96C57.9708 11.96 57.5388 12.0667 57.1655 12.28C56.8028 12.4933 56.5148 12.792 56.3015 13.176C56.0988 13.5493 55.9975 13.992 55.9975 14.504V14.824C55.9975 15.336 56.1148 15.7893 56.3495 16.184C56.5842 16.5787 56.9148 16.8827 57.3415 17.096C57.7682 17.3093 58.2588 17.416 58.8135 17.416C59.2935 17.416 59.7255 17.3413 60.1095 17.192C60.4935 17.0427 60.8348 16.808 61.1335 16.488L62.2055 17.72C61.8215 18.168 61.3362 18.5147 60.7495 18.76C60.1735 18.9947 59.5122 19.112 58.7655 19.112ZM67.3426 19.112C66.628 19.112 65.94 19.0213 65.2786 18.84C64.628 18.648 64.1106 18.4187 63.7266 18.152L64.4946 16.632C64.8786 16.8773 65.3373 17.08 65.8706 17.24C66.404 17.4 66.9373 17.48 67.4706 17.48C68.1 17.48 68.5533 17.3947 68.8306 17.224C69.1186 17.0533 69.2626 16.824 69.2626 16.536C69.2626 16.3013 69.1666 16.1253 68.9746 16.008C68.7826 15.88 68.532 15.784 68.2226 15.72C67.9133 15.656 67.5666 15.5973 67.1826 15.544C66.8093 15.4907 66.4306 15.4213 66.0466 15.336C65.6733 15.24 65.332 15.1067 65.0226 14.936C64.7133 14.7547 64.4626 14.5147 64.2706 14.216C64.0786 13.9173 63.9826 13.5227 63.9826 13.032C63.9826 12.488 64.1373 12.0187 64.4466 11.624C64.756 11.2187 65.188 10.9093 65.7426 10.696C66.308 10.472 66.9746 10.36 67.7426 10.36C68.3186 10.36 68.9 10.424 69.4866 10.552C70.0733 10.68 70.5586 10.8613 70.9426 11.096L70.1746 12.616C69.7693 12.3707 69.3586 12.2053 68.9426 12.12C68.5373 12.024 68.132 11.976 67.7266 11.976C67.1186 11.976 66.6653 12.0667 66.3666 12.248C66.0786 12.4293 65.9346 12.6587 65.9346 12.936C65.9346 13.192 66.0306 13.384 66.2226 13.512C66.4146 13.64 66.6653 13.7413 66.9746 13.816C67.284 13.8907 67.6253 13.9547 67.9986 14.008C68.3826 14.0507 68.7613 14.12 69.1346 14.216C69.508 14.312 69.8493 14.4453 70.1586 14.616C70.4786 14.776 70.7346 15.0053 70.9266 15.304C71.1186 15.6027 71.2146 15.992 71.2146 16.472C71.2146 17.0053 71.0546 17.4693 70.7346 17.864C70.4253 18.2587 69.9826 18.568 69.4066 18.792C68.8306 19.0053 68.1426 19.112 67.3426 19.112ZM76.153 19.112C75.2143 19.112 74.489 18.872 73.977 18.392C73.465 17.9013 73.209 17.1813 73.209 16.232V8.568H75.209V16.184C75.209 16.5893 75.3103 16.904 75.513 17.128C75.7263 17.352 76.0197 17.464 76.393 17.464C76.841 17.464 77.2143 17.3467 77.513 17.112L78.073 18.536C77.8383 18.728 77.5503 18.872 77.209 18.968C76.8677 19.064 76.5157 19.112 76.153 19.112ZM71.801 12.12V10.52H77.497V12.12H71.801ZM82.3583 19.112C81.6436 19.112 80.9556 19.0213 80.2943 18.84C79.6436 18.648 79.1263 18.4187 78.7423 18.152L79.5103 16.632C79.8943 16.8773 80.3529 17.08 80.8863 17.24C81.4196 17.4 81.9529 17.48 82.4863 17.48C83.1156 17.48 83.5689 17.3947 83.8463 17.224C84.1343 17.0533 84.2783 16.824 84.2783 16.536C84.2783 16.3013 84.1823 16.1253 83.9903 16.008C83.7983 15.88 83.5476 15.784 83.2383 15.72C82.9289 15.656 82.5823 15.5973 82.1983 15.544C81.8249 15.4907 81.4463 15.4213 81.0623 15.336C80.6889 15.24 80.3476 15.1067 80.0383 14.936C79.7289 14.7547 79.4783 14.5147 79.2863 14.216C79.0943 13.9173 78.9983 13.5227 78.9983 13.032C78.9983 12.488 79.1529 12.0187 79.4622 11.624C79.7716 11.2187 80.2036 10.9093 80.7582 10.696C81.3236 10.472 81.9903 10.36 82.7583 10.36C83.3343 10.36 83.9156 10.424 84.5023 10.552C85.0889 10.68 85.5743 10.8613 85.9583 11.096L85.1903 12.616C84.7849 12.3707 84.3743 12.2053 83.9583 12.12C83.5529 12.024 83.1476 11.976 82.7423 11.976C82.1343 11.976 81.6809 12.0667 81.3823 12.248C81.0943 12.4293 80.9503 12.6587 80.9503 12.936C80.9503 13.192 81.0463 13.384 81.2383 13.512C81.4303 13.64 81.6809 13.7413 81.9903 13.816C82.2996 13.8907 82.6409 13.9547 83.0143 14.008C83.3983 14.0507 83.7769 14.12 84.1503 14.216C84.5236 14.312 84.8649 14.4453 85.1743 14.616C85.4943 14.776 85.7503 15.0053 85.9423 15.304C86.1343 15.6027 86.2303 15.992 86.2303 16.472C86.2303 17.0053 86.0703 17.4693 85.7503 17.864C85.4409 18.2587 84.9983 18.568 84.4223 18.792C83.8463 19.0053 83.1583 19.112 82.3583 19.112Z" fill="black"/>
<circle cx="112.5" cy="12.5" r="12.5" fill="#EB7A4A" fill-opacity="0.75"/>
</svg>
