<svg width="139" height="25" viewBox="0 0 139 25" fill="none" xmlns="http://www.w3.org/2000/svg">
<path d="M30.8946 19V7.8H32.9746V17.24H38.8306V19H30.8946ZM40.2808 19V10.456H42.2808V19H40.2808ZM41.2888 9.048C40.9154 9.048 40.6061 8.93067 40.3608 8.696C40.1261 8.46133 40.0088 8.17867 40.0088 7.848C40.0088 7.50667 40.1261 7.224 40.3608 7C40.6061 6.76533 40.9154 6.648 41.2888 6.648C41.6621 6.648 41.9661 6.76 42.2008 6.984C42.4461 7.19733 42.5688 7.46933 42.5688 7.8C42.5688 8.152 42.4514 8.45067 42.2168 8.696C41.9821 8.93067 41.6728 9.048 41.2888 9.048ZM46.5378 17.096L46.5858 14.584L51.0498 10.456H53.4498L49.6578 14.264L48.6018 15.144L46.5378 17.096ZM44.9058 19V7.128H46.9058V19H44.9058ZM51.3538 19L48.2338 15.144L49.4978 13.544L53.7858 19H51.3538ZM58.7499 19.112C57.8005 19.112 56.9685 18.9253 56.2539 18.552C55.5499 18.168 55.0005 17.6453 54.6059 16.984C54.2219 16.3227 54.0299 15.5707 54.0299 14.728C54.0299 13.8747 54.2165 13.1227 54.5899 12.472C54.9739 11.8107 55.4965 11.2933 56.1579 10.92C56.8299 10.5467 57.5925 10.36 58.4459 10.36C59.2779 10.36 60.0192 10.5413 60.6699 10.904C61.3205 11.2667 61.8325 11.7787 62.2059 12.44C62.5792 13.1013 62.7659 13.88 62.7659 14.776C62.7659 14.8613 62.7605 14.9573 62.7499 15.064C62.7499 15.1707 62.7445 15.272 62.7339 15.368H55.6139V14.04H61.6779L60.8939 14.456C60.9045 13.9653 60.8032 13.5333 60.5899 13.16C60.3765 12.7867 60.0832 12.4933 59.7099 12.28C59.3472 12.0667 58.9259 11.96 58.4459 11.96C57.9552 11.96 57.5232 12.0667 57.1499 12.28C56.7872 12.4933 56.4992 12.792 56.2859 13.176C56.0832 13.5493 55.9819 13.992 55.9819 14.504V14.824C55.9819 15.336 56.0992 15.7893 56.3339 16.184C56.5685 16.5787 56.8992 16.8827 57.3259 17.096C57.7525 17.3093 58.2432 17.416 58.7979 17.416C59.2779 17.416 59.7099 17.3413 60.0939 17.192C60.4779 17.0427 60.8192 16.808 61.1179 16.488L62.1899 17.72C61.8059 18.168 61.3205 18.5147 60.7339 18.76C60.1579 18.9947 59.4965 19.112 58.7499 19.112ZM67.327 19.112C66.6123 19.112 65.9243 19.0213 65.263 18.84C64.6123 18.648 64.095 18.4187 63.711 18.152L64.479 16.632C64.863 16.8773 65.3217 17.08 65.855 17.24C66.3883 17.4 66.9217 17.48 67.455 17.48C68.0843 17.48 68.5377 17.3947 68.815 17.224C69.103 17.0533 69.247 16.824 69.247 16.536C69.247 16.3013 69.151 16.1253 68.959 16.008C68.767 15.88 68.5163 15.784 68.207 15.72C67.8977 15.656 67.551 15.5973 67.167 15.544C66.7937 15.4907 66.415 15.4213 66.031 15.336C65.6577 15.24 65.3163 15.1067 65.007 14.936C64.6977 14.7547 64.447 14.5147 64.255 14.216C64.063 13.9173 63.967 13.5227 63.967 13.032C63.967 12.488 64.1217 12.0187 64.431 11.624C64.7403 11.2187 65.1723 10.9093 65.727 10.696C66.2923 10.472 66.959 10.36 67.727 10.36C68.303 10.36 68.8843 10.424 69.471 10.552C70.0577 10.68 70.543 10.8613 70.927 11.096L70.159 12.616C69.7537 12.3707 69.343 12.2053 68.927 12.12C68.5217 12.024 68.1163 11.976 67.711 11.976C67.103 11.976 66.6497 12.0667 66.351 12.248C66.063 12.4293 65.919 12.6587 65.919 12.936C65.919 13.192 66.015 13.384 66.207 13.512C66.399 13.64 66.6497 13.7413 66.959 13.816C67.2683 13.8907 67.6097 13.9547 67.983 14.008C68.367 14.0507 68.7457 14.12 69.119 14.216C69.4923 14.312 69.8337 14.4453 70.143 14.616C70.463 14.776 70.719 15.0053 70.911 15.304C71.103 15.6027 71.199 15.992 71.199 16.472C71.199 17.0053 71.039 17.4693 70.719 17.864C70.4097 18.2587 69.967 18.568 69.391 18.792C68.815 19.0053 68.127 19.112 67.327 19.112Z" fill="black"/>
<path d="M93.1 19.55L93 19.65L92.89 19.55C88.14 15.24 85 12.39 85 9.5C85 7.5 86.5 6 88.5 6C90.04 6 91.54 7 92.07 8.36H93.93C94.46 7 95.96 6 97.5 6C99.5 6 101 7.5 101 9.5C101 12.39 97.86 15.24 93.1 19.55ZM97.5 4C95.76 4 94.09 4.81 93 6.08C91.91 4.81 90.24 4 88.5 4C85.42 4 83 6.41 83 9.5C83 13.27 86.4 16.36 91.55 21.03L93 22.35L94.45 21.03C99.6 16.36 103 13.27 103 9.5C103 6.41 100.58 4 97.5 4Z" fill="black" fill-opacity="0.5"/>
</svg>
