<svg width="290" height="38" viewBox="0 0 290 38" fill="none" xmlns="http://www.w3.org/2000/svg">
<circle cx="280" cy="19" r="10" fill="#F2BA4C"/>
<path d="M12.09 27.54C17.67 27.54 21.96 23.79 22.77 18.27H16.86C16.26 20.61 14.43 22.14 12.09 22.14C9.12 22.14 6.93 19.77 6.93 16.53C6.93 13.29 9.12 10.89 12.09 10.89C14.31 10.89 16.11 12.3 16.83 14.43H22.71C21.84 9.12 17.58 5.49 12.09 5.49C5.7 5.49 0.93 10.23 0.93 16.53C0.93 22.8 5.7 27.54 12.09 27.54ZM38.3454 10.8L37.7754 12.06C36.4554 10.95 34.7454 10.32 32.8254 10.32C27.8754 10.32 24.3354 13.89 24.3354 18.9C24.3354 23.94 27.8754 27.54 32.8254 27.54C34.7154 27.54 36.3954 26.94 37.7154 25.86L38.1954 27H42.5154V10.8H38.3454ZM33.5754 22.62C31.4754 22.62 29.9454 21.03 29.9454 18.9C29.9454 16.8 31.4754 15.24 33.5754 15.24C35.6754 15.24 37.2054 16.8 37.2054 18.9C37.2054 21.03 35.6754 22.62 33.5754 22.62ZM55.0969 10.74C53.1769 10.74 51.7969 11.28 50.6569 12.6L49.7869 10.8H46.0369V27H51.6169V18.78C51.6169 16.71 52.4569 15.84 54.4069 15.84H56.5969V10.74H55.0969ZM75.1095 18.75C75.1095 14.01 71.5095 10.29 66.2895 10.29C61.1895 10.29 57.4995 13.95 57.4995 18.9C57.4995 23.85 61.2195 27.54 66.2895 27.54C70.3395 27.54 73.6395 25.23 74.7795 21.54H69.1995C68.6895 22.5 67.5795 23.07 66.2895 23.07C64.5195 23.07 63.3495 22.11 62.9895 20.25H75.0195C75.0795 19.74 75.1095 19.26 75.1095 18.75ZM66.2895 14.67C67.9695 14.67 69.1395 15.54 69.6195 17.16H63.0795C63.5295 15.54 64.6695 14.67 66.2895 14.67ZM94.3282 18.75C94.3282 14.01 90.7282 10.29 85.5082 10.29C80.4082 10.29 76.7182 13.95 76.7182 18.9C76.7182 23.85 80.4382 27.54 85.5082 27.54C89.5582 27.54 92.8582 25.23 93.9982 21.54H88.4182C87.9082 22.5 86.7982 23.07 85.5082 23.07C83.7382 23.07 82.5682 22.11 82.2082 20.25H94.2382C94.2982 19.74 94.3282 19.26 94.3282 18.75ZM85.5082 14.67C87.1882 14.67 88.3582 15.54 88.8382 17.16H82.2982C82.7482 15.54 83.8882 14.67 85.5082 14.67ZM105.927 10.74C104.007 10.74 102.627 11.28 101.487 12.6L100.617 10.8H96.867V27H102.447V18.78C102.447 16.71 103.287 15.84 105.237 15.84H107.427V10.74H105.927ZM128.884 15.93C130.474 14.94 131.524 13.26 131.524 11.4C131.524 8.28 128.794 6.03 125.074 6.03H115.594V27.03H125.284C129.154 27.03 132.094 24.45 132.094 21.03C132.094 18.75 130.864 16.86 128.884 15.93ZM126.034 12.36C126.034 13.44 125.284 14.19 124.084 14.19H121.144V10.53H124.084C125.284 10.53 126.034 11.25 126.034 12.36ZM124.294 22.26H121.144V18.45H124.294C125.554 18.45 126.364 19.23 126.364 20.34C126.364 21.48 125.554 22.26 124.294 22.26ZM147.945 10.8L147.375 12.06C146.055 10.95 144.345 10.32 142.425 10.32C137.475 10.32 133.935 13.89 133.935 18.9C133.935 23.94 137.475 27.54 142.425 27.54C144.315 27.54 145.995 26.94 147.315 25.86L147.795 27H152.115V10.8H147.945ZM143.175 22.62C141.075 22.62 139.545 21.03 139.545 18.9C139.545 16.8 141.075 15.24 143.175 15.24C145.275 15.24 146.805 16.8 146.805 18.9C146.805 21.03 145.275 22.62 143.175 22.62ZM163.646 27.54C168.206 27.54 171.686 24.57 172.316 20.19H166.826C166.376 21.63 165.146 22.56 163.646 22.56C161.696 22.56 160.286 21.03 160.286 18.9C160.286 16.8 161.696 15.3 163.646 15.3C165.116 15.3 166.346 16.17 166.796 17.49H172.256C171.626 13.17 168.236 10.32 163.676 10.32C158.426 10.32 154.706 13.89 154.706 18.9C154.706 23.91 158.456 27.54 163.646 27.54ZM191.179 27L185.599 18.54L190.669 10.8H184.399L180.529 17.16V4.95H174.949V27H180.529V20.16L184.579 27H191.179ZM202.089 10.29C200.139 10.29 198.429 10.95 197.109 12.09L196.419 10.8H192.609V32.85H198.129V26.49C199.269 27.18 200.619 27.57 202.089 27.57C207.039 27.57 210.579 23.97 210.579 18.9C210.579 13.86 207.039 10.29 202.089 10.29ZM201.339 22.62C199.239 22.62 197.709 21.03 197.709 18.9C197.709 16.8 199.239 15.21 201.339 15.21C203.409 15.21 204.969 16.8 204.969 18.9C204.969 21.03 203.409 22.62 201.339 22.62ZM226.197 10.8L225.627 12.06C224.307 10.95 222.597 10.32 220.677 10.32C215.727 10.32 212.187 13.89 212.187 18.9C212.187 23.94 215.727 27.54 220.677 27.54C222.567 27.54 224.247 26.94 225.567 25.86L226.047 27H230.367V10.8H226.197ZM221.427 22.62C219.327 22.62 217.797 21.03 217.797 18.9C217.797 16.8 219.327 15.24 221.427 15.24C223.527 15.24 225.057 16.8 225.057 18.9C225.057 21.03 223.527 22.62 221.427 22.62ZM241.898 27.54C246.458 27.54 249.938 24.57 250.568 20.19H245.078C244.628 21.63 243.398 22.56 241.898 22.56C239.948 22.56 238.538 21.03 238.538 18.9C238.538 16.8 239.948 15.3 241.898 15.3C243.368 15.3 244.598 16.17 245.048 17.49H250.508C249.878 13.17 246.488 10.32 241.928 10.32C236.678 10.32 232.958 13.89 232.958 18.9C232.958 23.91 236.708 27.54 241.898 27.54ZM269.431 27L263.851 18.54L268.921 10.8H262.651L258.781 17.16V4.95H253.201V27H258.781V20.16L262.831 27H269.431Z" fill="black"/>
</svg>
