<svg width="24" height="24" viewBox="0 0 24 24" fill="none" xmlns="http://www.w3.org/2000/svg">
<path d="M1.11021 20.4072C0.352634 21.211 0.390139 22.4768 1.19398 23.2344C1.99781 23.9919 3.26359 23.9544 4.02116 23.1506L1.11021 20.4072ZM23.091 2.06208C23.0583 0.957995 22.1367 0.089477 21.0326 0.122191L3.04055 0.65529C1.93646 0.688004 1.06794 1.60956 1.10066 2.71365C1.13337 3.81773 2.05493 4.68625 3.15901 4.65354L19.152 4.17967L19.6259 20.1727C19.6586 21.2767 20.5801 22.1453 21.6842 22.1125C22.7883 22.0798 23.6568 21.1583 23.6241 20.0542L23.091 2.06208ZM4.02116 23.1506L22.5474 3.49302L19.6364 0.749604L1.11021 20.4072L4.02116 23.1506Z" fill="black"/>
</svg>
