<svg width="601" height="599" viewBox="0 0 601 599" fill="none" xmlns="http://www.w3.org/2000/svg">
<path fill-rule="evenodd" clip-rule="evenodd" d="M510.383 181.019C535.377 156.026 535.377 115.503 510.383 90.5097C485.39 65.5161 444.867 65.5161 419.874 90.5097L510.383 181.019Z" fill="#BD7BC4"/>
<path fill-rule="evenodd" clip-rule="evenodd" d="M416.767 93.6917C391.774 118.685 391.774 159.208 416.767 184.201C441.761 209.195 482.283 209.195 507.277 184.201L416.767 93.6917Z" fill="#BD7BC4"/>
<path fill-rule="evenodd" clip-rule="evenodd" d="M510 202C454.772 202 410 246.772 410 302C410 357.228 454.772 402 510 402L510 202Z" fill="#6EBB86"/>
<circle cx="376" cy="334" r="6" fill="white"/>
<circle cx="306" cy="295" r="100" fill="#F2BA4C"/>
<circle cx="156" cy="549" r="50" fill="#61AF7A"/>
<circle cx="156" cy="549" r="25" fill="white"/>
<circle cx="156" cy="247" r="50" fill="black"/>
<path fill-rule="evenodd" clip-rule="evenodd" d="M199.678 498H200V402.348H100V402.656L199.678 498Z" fill="#E3673C"/>
<path fill-rule="evenodd" clip-rule="evenodd" d="M199.678 393.652H200V298H100V298.308L199.678 393.652Z" fill="#BD7BC4"/>
<rect x="206" y="499" width="200" height="100" rx="50" fill="black"/>
<path d="M418.5 548V448C418.5 421.766 439.766 400.5 466 400.5C492.234 400.5 513.5 421.766 513.5 448V548C513.5 574.234 492.234 595.5 466 595.5C439.766 595.5 418.5 574.234 418.5 548Z" fill="white" stroke="black" stroke-width="5"/>
<rect x="202.5" y="89.5" width="195" height="95" rx="47.5" fill="white" stroke="black" stroke-width="5"/>
<rect x="210" y="395" width="200" height="100" fill="#618DF4"/>
<path fill-rule="evenodd" clip-rule="evenodd" d="M354.5 501C327.714 501 306 522.714 306 549.5C306 576.286 327.714 598 354.5 598V501Z" fill="white"/>
<path fill-rule="evenodd" clip-rule="evenodd" d="M416 445C416 471.786 437.714 493.5 464.5 493.5C491.286 493.5 513 471.786 513 445H416Z" fill="black"/>
<mask id="path-17-inside-1_145_228" fill="white">
<path fill-rule="evenodd" clip-rule="evenodd" d="M358 89.97H349.334L349.334 186C325.401 186 306 164.286 306 137.5C306 110.714 325.401 89 349.334 89C352.302 89 355.2 89.3339 358 89.97Z"/>
</mask>
<path fill-rule="evenodd" clip-rule="evenodd" d="M358 89.97H349.334L349.334 186C325.401 186 306 164.286 306 137.5C306 110.714 325.401 89 349.334 89C352.302 89 355.2 89.3339 358 89.97Z" fill="white"/>
<path d="M349.334 89.97V84.97H344.334L344.334 89.97L349.334 89.97ZM358 89.97V94.97L359.108 85.0942L358 89.97ZM349.334 186V191H354.334L354.334 186L349.334 186ZM349.334 94.97H358V84.97H349.334V94.97ZM354.334 186L354.334 89.97L344.334 89.97L344.334 186L354.334 186ZM349.334 181C328.677 181 311 162.069 311 137.5H301C301 166.503 322.125 191 349.334 191V181ZM311 137.5C311 112.931 328.677 94 349.334 94V84C322.125 84 301 108.497 301 137.5H311ZM349.334 94C351.925 94 354.452 94.2914 356.892 94.8458L359.108 85.0942C355.948 84.3765 352.678 84 349.334 84V94Z" fill="black" mask="url(#path-17-inside-1_145_228)"/>
<mask id="path-19-inside-2_145_228" fill="white">
<path fill-rule="evenodd" clip-rule="evenodd" d="M322.7 87.97H314.584V184C292.17 184 274 162.286 274 135.5C274 108.714 292.17 87 314.584 87C317.363 87 320.078 87.3339 322.7 87.97Z"/>
</mask>
<path fill-rule="evenodd" clip-rule="evenodd" d="M322.7 87.97H314.584V184C292.17 184 274 162.286 274 135.5C274 108.714 292.17 87 314.584 87C317.363 87 320.078 87.3339 322.7 87.97Z" fill="white"/>
<path d="M314.584 87.97V82.97H309.584V87.97H314.584ZM322.7 87.97V92.97L323.879 83.1109L322.7 87.97ZM314.584 184V189H319.584V184H314.584ZM314.584 92.97H322.7V82.97H314.584V92.97ZM319.584 184V87.97H309.584V184H319.584ZM314.584 179C295.729 179 279 160.396 279 135.5H269C269 164.176 288.611 189 314.584 189V179ZM279 135.5C279 110.604 295.729 92 314.584 92V82C288.611 82 269 106.824 269 135.5H279ZM314.584 92C316.961 92 319.279 92.2853 321.521 92.8291L323.879 83.1109C320.876 82.3825 317.766 82 314.584 82V92Z" fill="black" mask="url(#path-19-inside-2_145_228)"/>
</svg>
