<svg width="158" height="25" viewBox="0 0 158 25" fill="none" xmlns="http://www.w3.org/2000/svg">
<path d="M38.4604 19.16C37.5857 19.16 36.7484 19.0373 35.9484 18.792C35.1484 18.536 34.5137 18.2107 34.0444 17.816L34.7644 16.2C35.2124 16.552 35.767 16.8453 36.4284 17.08C37.0897 17.3147 37.767 17.432 38.4604 17.432C39.047 17.432 39.5217 17.368 39.8844 17.24C40.247 17.112 40.5137 16.9413 40.6844 16.728C40.855 16.504 40.9404 16.2533 40.9404 15.976C40.9404 15.6347 40.8177 15.3627 40.5724 15.16C40.327 14.9467 40.007 14.7813 39.6124 14.664C39.2284 14.536 38.7964 14.4187 38.3164 14.312C37.847 14.2053 37.3724 14.0827 36.8924 13.944C36.423 13.7947 35.991 13.608 35.5964 13.384C35.2124 13.1493 34.8977 12.84 34.6524 12.456C34.407 12.072 34.2844 11.5813 34.2844 10.984C34.2844 10.376 34.4444 9.82133 34.7644 9.32C35.095 8.808 35.591 8.40267 36.2524 8.104C36.9244 7.79467 37.7724 7.64 38.7964 7.64C39.4684 7.64 40.135 7.72533 40.7964 7.896C41.4577 8.06667 42.0337 8.312 42.5244 8.632L41.8684 10.248C41.367 9.94933 40.8497 9.73067 40.3164 9.592C39.783 9.44267 39.271 9.368 38.7804 9.368C38.2044 9.368 37.735 9.43733 37.3724 9.576C37.0204 9.71467 36.759 9.896 36.5884 10.12C36.4284 10.344 36.3484 10.6 36.3484 10.888C36.3484 11.2293 36.4657 11.5067 36.7004 11.72C36.9457 11.9227 37.2604 12.0827 37.6444 12.2C38.039 12.3173 38.4764 12.4347 38.9564 12.552C39.4364 12.6587 39.911 12.7813 40.3804 12.92C40.8604 13.0587 41.2924 13.24 41.6764 13.464C42.071 13.688 42.3857 13.992 42.6204 14.376C42.8657 14.76 42.9884 15.2453 42.9884 15.832C42.9884 16.4293 42.823 16.984 42.4924 17.496C42.1724 17.9973 41.6764 18.4027 41.0044 18.712C40.3324 19.0107 39.4844 19.16 38.4604 19.16ZM44.8589 19V10.456H46.8589V19H44.8589ZM45.8669 9.048C45.4935 9.048 45.1842 8.93067 44.9389 8.696C44.7042 8.46133 44.5869 8.17867 44.5869 7.848C44.5869 7.50667 44.7042 7.224 44.9389 7C45.1842 6.76533 45.4935 6.648 45.8669 6.648C46.2402 6.648 46.5442 6.76 46.7789 6.984C47.0242 7.19733 47.1469 7.46933 47.1469 7.8C47.1469 8.152 47.0295 8.45067 46.7949 8.696C46.5602 8.93067 46.2509 9.048 45.8669 9.048ZM48.7799 19V17.736L54.0439 11.368L54.4119 12.056H48.8759V10.456H56.0119V11.72L50.7479 18.088L50.3479 17.4H56.1559V19H48.7799ZM61.8905 19.112C60.9412 19.112 60.1092 18.9253 59.3945 18.552C58.6905 18.168 58.1412 17.6453 57.7465 16.984C57.3625 16.3227 57.1705 15.5707 57.1705 14.728C57.1705 13.8747 57.3572 13.1227 57.7305 12.472C58.1145 11.8107 58.6372 11.2933 59.2985 10.92C59.9705 10.5467 60.7332 10.36 61.5865 10.36C62.4185 10.36 63.1598 10.5413 63.8105 10.904C64.4612 11.2667 64.9732 11.7787 65.3465 12.44C65.7198 13.1013 65.9065 13.88 65.9065 14.776C65.9065 14.8613 65.9012 14.9573 65.8905 15.064C65.8905 15.1707 65.8852 15.272 65.8745 15.368H58.7545V14.04H64.8185L64.0345 14.456C64.0452 13.9653 63.9438 13.5333 63.7305 13.16C63.5172 12.7867 63.2238 12.4933 62.8505 12.28C62.4878 12.0667 62.0665 11.96 61.5865 11.96C61.0958 11.96 60.6638 12.0667 60.2905 12.28C59.9278 12.4933 59.6398 12.792 59.4265 13.176C59.2238 13.5493 59.1225 13.992 59.1225 14.504V14.824C59.1225 15.336 59.2398 15.7893 59.4745 16.184C59.7092 16.5787 60.0398 16.8827 60.4665 17.096C60.8932 17.3093 61.3838 17.416 61.9385 17.416C62.4185 17.416 62.8505 17.3413 63.2345 17.192C63.6185 17.0427 63.9598 16.808 64.2585 16.488L65.3305 17.72C64.9465 18.168 64.4612 18.5147 63.8745 18.76C63.2985 18.9947 62.6372 19.112 61.8905 19.112Z" fill="black"/>
<circle cx="89" cy="13" r="6" fill="#EB7A4A" fill-opacity="0.75"/>
<circle cx="115" cy="13" r="9" fill="#EB7A4A" fill-opacity="0.75"/>
<circle cx="145.5" cy="12.5" r="12.5" fill="#EB7A4A" fill-opacity="0.75"/>
</svg>
